<?xml version="1.0" ?><svg xmlns="http://www.w3.org/2000/svg" xmlns:xlink="http://www.w3.org/1999/xlink" version="1.1" viewBox="0 0 32 32" style="enable-background:new 0 0 32 32;" xml:space="preserve"><style type="text/css">
	.st0{display:none;}
	.st1{display:inline;}
	.st2{fill:#CDF6F9;}
	.st3{fill:#FFFFFF;}
	.st4{fill:#1A83A8;}
</style><g id="Grid" class="st0"/><g id="Money"/><g id="Receipt"/><g id="Search"/><g id="Chart"/><g id="Briefcase"/><g id="Coin"/><g id="Tax"/><g id="Vision"/><g id="Contract"/><g id="Book"/><g id="Financial"/><g id="Payment_day"/><g id="Report"/><g id="Loss"/><g id="Profit"/><g id="Money_Bag"/><g id="Target"/><g id="Gold"/><g id="Safety_Box"><path class="st2" d="M25.187,30H6.812C4.155,30,2,27.845,2,25.188V6.813C2,4.155,4.155,2,6.812,2h18.375   C27.845,2,30,4.155,30,6.813v18.375C30,27.845,27.845,30,25.187,30z"/><circle class="st3" cx="16" cy="16" r="4.935"/><path class="st4" d="M25.187,1.1H6.812C3.663,1.1,1.1,3.663,1.1,6.813v18.375c0,3.149,2.563,5.713,5.713,5.713h18.375   c3.149,0,5.713-2.563,5.713-5.713V6.813C30.9,3.663,28.337,1.1,25.187,1.1z M29.1,25.188c0,2.157-1.755,3.912-3.912,3.912H6.812   c-2.157,0-3.912-1.755-3.912-3.912V6.813C2.9,4.655,4.655,2.9,6.812,2.9h18.375c2.157,0,3.912,1.755,3.912,3.912V25.188z"/><path class="st4" d="M22.637,9.363c-0.352-0.352-0.922-0.352-1.273,0l-1.938,1.938c-2.039-1.485-4.812-1.485-6.851,0l-1.938-1.938   c-0.352-0.352-0.922-0.352-1.273,0s-0.352,0.922,0,1.273l1.938,1.938c-1.486,2.039-1.486,4.812,0,6.851l-1.938,1.938   c-0.352,0.352-0.352,0.922,0,1.273C9.539,22.813,9.77,22.9,10,22.9s0.461-0.088,0.637-0.264l1.938-1.938   c1.02,0.743,2.218,1.133,3.426,1.133s2.406-0.39,3.426-1.133l1.938,1.938C21.539,22.813,21.77,22.9,22,22.9   s0.461-0.088,0.637-0.264c0.352-0.352,0.352-0.922,0-1.273l-1.938-1.938c1.486-2.039,1.486-4.812,0-6.851l1.938-1.938   C22.988,10.285,22.988,9.715,22.637,9.363z M13.146,18.854c-1.573-1.573-1.573-4.134,0-5.707c0.786-0.787,1.82-1.18,2.854-1.18   s2.067,0.393,2.854,1.18c1.573,1.573,1.573,4.134,0,5.707C17.281,20.428,14.719,20.428,13.146,18.854z"/></g><g id="Wallet"/><g id="Investment"/><g id="Pie_Chart"/><g id="Home"/><g id="Assets"/><g id="Computer"/></svg>