<svg id="Layer_1" data-name="Layer 1" xmlns="http://www.w3.org/2000/svg" viewBox="0 0 64 64"><defs><style>.cls-1{fill:#d9e7f4;}.cls-17,.cls-2,.cls-20,.cls-22,.cls-31,.cls-37{fill:none;}.cls-19,.cls-2,.cls-20,.cls-22,.cls-37{stroke:#041256;}.cls-19,.cls-2,.cls-20,.cls-22,.cls-31,.cls-37{stroke-linecap:round;}.cls-19,.cls-2,.cls-20,.cls-31,.cls-37{stroke-linejoin:round;}.cls-2,.cls-31{stroke-width:2px;}.cls-3{fill:#5d4ed1;}.cls-4{fill:#4c46bc;}.cls-5{opacity:0.4;}.cls-6{fill:#9898ea;}.cls-7{fill:#c1d9ea;}.cls-19,.cls-8{fill:#041256;}.cls-9{fill:#6d68dd;}.cls-10{fill:#fff;}.cls-11{fill:#b8cce8;}.cls-12{fill:#cedff4;}.cls-13{fill:#98b3d3;}.cls-14{fill:#326acc;}.cls-15{fill:#4c8dd3;}.cls-16{fill:#2980ce;}.cls-17{stroke:#1e439e;}.cls-17,.cls-22{stroke-miterlimit:10;}.cls-18{fill:#9eb9d8;}.cls-20,.cls-22{stroke-width:0.75px;}.cls-21{fill:#0e2168;}.cls-23{fill:#50d190;}.cls-24{fill:#4cbf88;}.cls-25{fill:#53e096;}.cls-26{fill:#3bb790;}.cls-27{fill:#7df4b3;}.cls-28{fill:#6eeda5;}.cls-29{fill:#dcffea;}.cls-30{fill:#a1ffc9;}.cls-31{stroke:#fff;}.cls-32{fill:#e53578;}.cls-33{fill:#bcea6c;}.cls-34{fill:#c9316f;}.cls-35{fill:#f469a2;}.cls-36{fill:#c2ffdc;}.cls-38{fill:#ebf0f7;}</style></defs><title>online, shopping, discount, price, down, laptop, smartphone</title><path class="cls-1" d="M7.92,45.86v2.08A1.08,1.08,0,0,0,9,49H9a1.08,1.08,0,0,1,1.08,1.08v.5a1.08,1.08,0,0,0,1.08,1.08h2.25a1.08,1.08,0,0,0,1.08-1.08V48.44a1.08,1.08,0,0,1,1.08-1.08h2a1.08,1.08,0,0,1,1.08,1.08v6.33a1.08,1.08,0,0,0,1.08,1.08h4.07a1.08,1.08,0,0,0,.77-.32l2.87-2.87a1.08,1.08,0,0,1,.77-.32h2.69A1.08,1.08,0,0,0,32,51.27v-3.6a1.08,1.08,0,0,1,1.08-1.08h1.36a1.08,1.08,0,0,0,1.08-1.08V39.79a1.08,1.08,0,0,1,1.08-1.08h4.24a1.08,1.08,0,0,1,1.08,1.08v8.15A1.08,1.08,0,0,0,43,49h1.45a1.08,1.08,0,0,1,.77.32l1.19,1.19a1.08,1.08,0,0,1,.32.77V53a1.08,1.08,0,0,0,1.08,1.08h.58A1.08,1.08,0,0,0,49.5,53V49.36a1.08,1.08,0,0,1,1.08-1.08h.71a1.08,1.08,0,0,0,1.08-1.08V42.67a1.08,1.08,0,0,1,1.08-1.08h1.33a1.08,1.08,0,0,0,1.08-1.08V34.73A1.08,1.08,0,0,1,57,33.65h3A1.08,1.08,0,0,1,61,34.73v24a1.08,1.08,0,0,1-1.08,1.08H4.08A1.08,1.08,0,0,1,3,58.69V45.86a1.08,1.08,0,0,1,1.08-1.08H6.83A1.08,1.08,0,0,1,7.92,45.86Z"/><line class="cls-2" x1="60.93" y1="59.77" x2="3.07" y2="59.77"/><path class="cls-3" d="M27.69,47.66H41.82a0,0,0,0,1,0,0v9.63a1.41,1.41,0,0,1-1.41,1.41H29.1a1.41,1.41,0,0,1-1.41-1.41V47.66A0,0,0,0,1,27.69,47.66Z"/><path class="cls-4" d="M34.75,47.66H27.69v2l4,1.39a4.65,4.65,0,0,1,3.11,4.39V58.7h5.65a1.41,1.41,0,0,0,1.41-1.41V47.66Z"/><g class="cls-5"><circle class="cls-6" cx="28.93" cy="49.43" r="0.4"/><circle class="cls-6" cx="30.59" cy="49.43" r="0.4"/><circle class="cls-6" cx="32.26" cy="49.43" r="0.4"/><circle class="cls-6" cx="33.92" cy="49.43" r="0.4"/><circle class="cls-6" cx="35.58" cy="49.43" r="0.4"/><circle class="cls-6" cx="37.24" cy="49.43" r="0.4"/><circle class="cls-6" cx="38.91" cy="49.43" r="0.4"/><circle class="cls-6" cx="40.57" cy="49.43" r="0.4"/><circle class="cls-6" cx="29.76" cy="50.96" r="0.4"/><circle class="cls-6" cx="31.43" cy="50.96" r="0.4"/><circle class="cls-6" cx="33.09" cy="50.96" r="0.4"/><circle class="cls-6" cx="34.75" cy="50.96" r="0.4"/><circle class="cls-6" cx="36.41" cy="50.96" r="0.4"/><circle class="cls-6" cx="38.08" cy="50.96" r="0.4"/><circle class="cls-6" cx="39.74" cy="50.96" r="0.4"/><circle class="cls-6" cx="28.93" cy="52.4" r="0.4"/><circle class="cls-6" cx="30.59" cy="52.4" r="0.4"/><circle class="cls-6" cx="32.26" cy="52.4" r="0.4"/><circle class="cls-6" cx="33.92" cy="52.4" r="0.4"/><circle class="cls-6" cx="35.58" cy="52.4" r="0.4"/><circle class="cls-6" cx="37.24" cy="52.4" r="0.4"/><circle class="cls-6" cx="38.91" cy="52.4" r="0.4"/><circle class="cls-6" cx="40.57" cy="52.4" r="0.4"/><circle class="cls-6" cx="29.76" cy="53.93" r="0.4"/><circle class="cls-6" cx="31.43" cy="53.93" r="0.4"/><circle class="cls-6" cx="33.09" cy="53.93" r="0.4"/><circle class="cls-6" cx="34.75" cy="53.93" r="0.4"/><circle class="cls-6" cx="36.41" cy="53.93" r="0.4"/><circle class="cls-6" cx="38.08" cy="53.93" r="0.4"/><circle class="cls-6" cx="39.74" cy="53.93" r="0.4"/><circle class="cls-6" cx="28.93" cy="55.38" r="0.4"/><circle class="cls-6" cx="30.59" cy="55.38" r="0.4"/><circle class="cls-6" cx="32.26" cy="55.38" r="0.4"/><circle class="cls-6" cx="33.92" cy="55.38" r="0.4"/><circle class="cls-6" cx="35.58" cy="55.38" r="0.4"/><circle class="cls-6" cx="37.24" cy="55.38" r="0.4"/><circle class="cls-6" cx="38.91" cy="55.38" r="0.4"/><circle class="cls-6" cx="40.57" cy="55.38" r="0.4"/><circle class="cls-6" cx="29.76" cy="56.91" r="0.4"/><circle class="cls-6" cx="31.43" cy="56.91" r="0.4"/><circle class="cls-6" cx="33.09" cy="56.91" r="0.4"/><circle class="cls-6" cx="34.75" cy="56.91" r="0.4"/><circle class="cls-6" cx="36.41" cy="56.91" r="0.4"/><circle class="cls-6" cx="38.08" cy="56.91" r="0.4"/><circle class="cls-6" cx="39.74" cy="56.91" r="0.4"/></g><rect class="cls-1" x="33.34" y="47.66" width="2.83" height="11.04"/><path class="cls-7" d="M34.75,55.42V58.7h1.41v-11H33.34v4.43A4.64,4.64,0,0,1,34.75,55.42Z"/><path class="cls-8" d="M41.82,47.66v9.63a1.41,1.41,0,0,1-1.41,1.41H29.1a1.41,1.41,0,0,1-1.41-1.41V47.66H41.82m0-2H27.69a2,2,0,0,0-2,2v9.63A3.41,3.41,0,0,0,29.1,60.7H40.41a3.41,3.41,0,0,0,3.41-3.41V47.66a2,2,0,0,0-2-2Z"/><rect class="cls-9" x="26.66" y="43.71" width="16.17" height="3.96"/><polygon class="cls-6" points="28.29 45.09 42.84 45.09 42.84 43.71 26.66 43.71 26.66 47.66 28.29 47.66 28.29 45.09"/><rect class="cls-10" x="32.81" y="43.2" width="3.87" height="4.46"/><path class="cls-8" d="M42.84,43.71v4H26.66v-4H42.84m0-2H26.66a2,2,0,0,0-2,2v4a2,2,0,0,0,2,2H42.84a2,2,0,0,0,2-2v-4a2,2,0,0,0-2-2Z"/><path class="cls-2" d="M34.75,42.47h-1.9a1.62,1.62,0,0,1-1.62-1.62h0a1.62,1.62,0,0,1,1.62-1.62h.28a1.62,1.62,0,0,1,1.62,1.62Z"/><path class="cls-2" d="M34.79,42.47h1.9a1.62,1.62,0,0,0,1.62-1.62h0a1.62,1.62,0,0,0-1.62-1.62h-.28a1.62,1.62,0,0,0-1.62,1.62Z"/><path class="cls-11" d="M9.36,4.23H40.88a1.92,1.92,0,0,1,1.92,1.92V30.35a0,0,0,0,1,0,0H7.44a0,0,0,0,1,0,0V6.14A1.92,1.92,0,0,1,9.36,4.23Z"/><path class="cls-12" d="M11.61,4.23H9.36A1.92,1.92,0,0,0,7.44,6.14V30.35H9.7V6.14A1.92,1.92,0,0,1,11.61,4.23Z"/><path class="cls-12" d="M40.88,4.23H9.36A1.92,1.92,0,0,0,7.44,6.14V7.65a1.92,1.92,0,0,1,2-1.92H40.92a1.91,1.91,0,0,1,1.87,1.92V6.14A1.92,1.92,0,0,0,40.88,4.23Z"/><path class="cls-10" d="M40.88,4.23H9.36A1.92,1.92,0,0,0,7.44,6.14v1A1.92,1.92,0,0,1,9.36,5.25H40.88a1.92,1.92,0,0,1,1.92,1.92v-1A1.92,1.92,0,0,0,40.88,4.23Z"/><rect class="cls-13" x="36.39" y="4.23" width="2.59" height="5.02"/><path class="cls-10" d="M9.36,5.74h.39a1.91,1.91,0,0,1,1.87-1.51H9.36A1.92,1.92,0,0,0,7.44,6.14V7.65A1.92,1.92,0,0,1,9.36,5.74Z"/><path class="cls-2" d="M9.36,4.23H40.88a1.92,1.92,0,0,1,1.92,1.92V30.35a0,0,0,0,1,0,0H7.44a0,0,0,0,1,0,0V6.14A1.92,1.92,0,0,1,9.36,4.23Z"/><path class="cls-14" d="M40.2,30.27H10V7.62a.44.44,0,0,1,.44-.44H39.76a.44.44,0,0,1,.44.44Z"/><path class="cls-14" d="M40.2,30.27V7.62a.44.44,0,0,0-.44-.44H21.63l-4,1.63L22,19.65l7.27,4.46a3.85,3.85,0,0,1,1.83,3.28v2.89Z"/><path class="cls-15" d="M38.79,30H11.44V8.92a.4.4,0,0,1,.4-.4H38.39a.4.4,0,0,1,.4.4Z"/><path class="cls-16" d="M38.39,8.52h-20a19.11,19.11,0,0,0,2.84,7.8,25.53,25.53,0,0,0,8,7.77,3.87,3.87,0,0,1,1.86,3.29V30h7.73V8.92A.4.4,0,0,0,38.39,8.52Z"/><path class="cls-17" d="M10,29.46V7.62a.44.44,0,0,1,.44-.44H39.76a.44.44,0,0,1,.44.44V29.46"/><path class="cls-18" d="M3.73,30.35H46.51a.73.73,0,0,1,.73.73V32a2.17,2.17,0,0,1-2.17,2.17H5.17A2.17,2.17,0,0,1,3,32v-.94A.73.73,0,0,1,3.73,30.35Z"/><path class="cls-11" d="M4.91,33.53V32.11a.24.24,0,0,1,.24-.24H47.24v-.79a.73.73,0,0,0-.73-.73H3.73a.73.73,0,0,0-.73.73V32a2.17,2.17,0,0,0,2,2.16A2.15,2.15,0,0,1,4.91,33.53Z"/><path class="cls-10" d="M4.91,34.15l.11,0a2.15,2.15,0,0,1-.11-.64Z"/><path class="cls-10" d="M46.51,30.35H3.73a.73.73,0,0,0-.73.73V32c0,.05,0,.1,0,.16a.72.72,0,0,1,.71-.65H46.51a.72.72,0,0,1,.6.35h.12v-.79A.73.73,0,0,0,46.51,30.35Z"/><path class="cls-2" d="M3.73,30.35H46.51a.73.73,0,0,1,.73.73V32a2.17,2.17,0,0,1-2.17,2.17H5.17A2.17,2.17,0,0,1,3,32v-.94A.73.73,0,0,1,3.73,30.35Z"/><path class="cls-19" d="M20.51,30.35l.61.76a1.1,1.1,0,0,0,.86.41h6.28a1.1,1.1,0,0,0,.86-.41l.61-.76Z"/><circle class="cls-20" cx="25.12" cy="5.9"/><path class="cls-8" d="M12.65,49.52a1.57,1.57,0,0,1-1.07,1.95A2.07,2.07,0,0,1,9.29,50.2c-.24-.83.57-1.52,1.41-1.76A1.57,1.57,0,0,1,12.65,49.52Z"/><path class="cls-21" d="M10.7,48.44a2.68,2.68,0,0,0-.37.14,1.57,1.57,0,0,1,.9,2.93,1.33,1.33,0,0,0,.34,0,1.57,1.57,0,0,0-.87-3Z"/><path class="cls-22" d="M10.43,56.74a1.81,1.81,0,0,1,0,2.56"/><path class="cls-22" d="M12.29,56.74a1.81,1.81,0,0,1,0,2.56"/><path class="cls-8" d="M11.2,51.83c-.93,0-1.71,1.55-2,3.69a1.42,1.42,0,0,0,1.41,1.58h2.13a.5.5,0,0,0,.5-.51C13.17,53.92,12.28,51.83,11.2,51.83Z"/><path class="cls-21" d="M13.16,55.38c-.28-2.06-1.05-3.55-2-3.55a.87.87,0,0,0-.34.07c.69.3,1.2,1.65,1.39,3.48Z"/><path class="cls-21" d="M12.29,55.82c0,.41,0,.84,0,1.29h.43a.5.5,0,0,0,.5-.51c0-.26,0-.52-.05-.77Z"/><path class="cls-22" d="M14.28,50.16a2.7,2.7,0,0,1-2.87,2.52"/><path class="cls-22" d="M8.18,55.38a2.7,2.7,0,0,1,2.8-2.6"/><path class="cls-22" d="M19.39,50.62A2.56,2.56,0,0,1,16.7,53"/><path class="cls-8" d="M18.77,49.52a1.57,1.57,0,0,1-1.07,1.95,2.07,2.07,0,0,1-2.28-1.26c-.24-.83.57-1.52,1.41-1.76A1.57,1.57,0,0,1,18.77,49.52Z"/><path class="cls-21" d="M16.83,48.44a2.68,2.68,0,0,0-.37.14,1.57,1.57,0,0,1,.9,2.93,1.33,1.33,0,0,0,.34,0,1.57,1.57,0,0,0-.87-3Z"/><path class="cls-22" d="M16.55,56.74a1.81,1.81,0,0,1,0,2.56"/><path class="cls-22" d="M18.42,56.74a1.81,1.81,0,0,1,0,2.56"/><path class="cls-8" d="M17.33,51.83c-.93,0-1.71,1.55-2,3.69a1.42,1.42,0,0,0,1.41,1.58h2.13a.5.5,0,0,0,.5-.51C19.29,53.92,18.41,51.83,17.33,51.83Z"/><path class="cls-21" d="M19.29,55.38c-.28-2.06-1.05-3.55-2-3.55a.87.87,0,0,0-.34.07c.69.3,1.2,1.65,1.39,3.48Z"/><path class="cls-21" d="M18.42,55.82c0,.41,0,.84,0,1.29h.43a.5.5,0,0,0,.5-.51c0-.26,0-.52-.05-.77Z"/><path class="cls-22" d="M20.72,50.94a2.7,2.7,0,0,1-2.87,2.52"/><rect class="cls-23" x="42.79" y="30.15" width="16.67" height="29.62" rx="2.67" ry="2.67"/><rect class="cls-24" x="45.32" y="32.55" width="11.61" height="24.82" rx="0.98" ry="0.98"/><path class="cls-25" d="M42.79,50.93,59.46,34.26V32.82a2.66,2.66,0,0,0-1.36-2.31L42.79,45.82Z"/><path class="cls-23" d="M45.32,48.4,56.93,36.79V33.53a1,1,0,0,0-.89-1L45.32,43.29Z"/><polygon class="cls-25" points="42.79 55.75 59.46 39.09 59.46 37.32 42.79 53.99 42.79 55.75"/><polygon class="cls-23" points="45.32 53.22 56.93 41.62 56.93 39.85 45.32 51.46 45.32 53.22"/><path class="cls-25" d="M43.34,58.71,59.46,42.6V42L43.12,58.35A2.65,2.65,0,0,0,43.34,58.71Z"/><path class="cls-23" d="M56.93,44.54,45.32,56.15v.25a1,1,0,0,0,.06.28L56.93,45.13Z"/><rect class="cls-2" x="42.79" y="30.15" width="16.67" height="29.62" rx="2.67" ry="2.67"/><polygon class="cls-2" points="53.78 31.5 48.47 31.5 47.4 30.39 54.85 30.39 53.78 31.5"/><circle class="cls-25" cx="48.64" cy="30.95" r="0.22"/><rect class="cls-26" x="46.74" y="35.58" width="1.74" height="1.74" rx="0.43" ry="0.43"/><rect class="cls-27" x="46.74" y="35.29" width="1.74" height="1.74" rx="0.43" ry="0.43"/><path class="cls-28" d="M48,35.29a.43.43,0,0,1,.43.43v.88A.43.43,0,0,1,48,37h-.88a.43.43,0,0,1-.43-.43"/><rect class="cls-26" x="50.25" y="35.58" width="1.74" height="1.74" rx="0.43" ry="0.43"/><rect class="cls-27" x="50.25" y="35.29" width="1.74" height="1.74" rx="0.43" ry="0.43"/><path class="cls-28" d="M51.56,35.29a.43.43,0,0,1,.43.43v.88a.43.43,0,0,1-.43.43h-.88a.43.43,0,0,1-.43-.43"/><rect class="cls-26" x="53.77" y="35.58" width="1.74" height="1.74" rx="0.43" ry="0.43"/><rect class="cls-27" x="53.77" y="35.29" width="1.74" height="1.74" rx="0.43" ry="0.43"/><path class="cls-28" d="M55.08,35.29a.43.43,0,0,1,.43.43v.88a.43.43,0,0,1-.43.43H54.2a.43.43,0,0,1-.43-.43"/><rect class="cls-26" x="46.74" y="38.94" width="1.74" height="1.74" rx="0.43" ry="0.43"/><rect class="cls-27" x="46.74" y="38.65" width="1.74" height="1.74" rx="0.43" ry="0.43"/><path class="cls-28" d="M48,38.65a.43.43,0,0,1,.43.43V40a.43.43,0,0,1-.43.43h-.88a.43.43,0,0,1-.43-.43"/><rect class="cls-26" x="50.25" y="38.94" width="1.74" height="1.74" rx="0.43" ry="0.43"/><rect class="cls-27" x="50.25" y="38.65" width="1.74" height="1.74" rx="0.43" ry="0.43"/><path class="cls-28" d="M51.56,38.65a.43.43,0,0,1,.43.43V40a.43.43,0,0,1-.43.43h-.88a.43.43,0,0,1-.43-.43"/><rect class="cls-26" x="53.77" y="38.94" width="1.74" height="1.74" rx="0.43" ry="0.43"/><rect class="cls-27" x="53.77" y="38.65" width="1.74" height="1.74" rx="0.43" ry="0.43"/><path class="cls-28" d="M55.08,38.65a.43.43,0,0,1,.43.43V40a.43.43,0,0,1-.43.43H54.2a.43.43,0,0,1-.43-.43"/><rect class="cls-26" x="46.74" y="42.3" width="1.74" height="1.74" rx="0.43" ry="0.43"/><rect class="cls-27" x="46.74" y="42.01" width="1.74" height="1.74" rx="0.43" ry="0.43"/><path class="cls-28" d="M48,42a.43.43,0,0,1,.43.43v.88a.43.43,0,0,1-.43.43h-.88a.43.43,0,0,1-.43-.43"/><rect class="cls-26" x="50.25" y="42.3" width="1.74" height="1.74" rx="0.43" ry="0.43"/><rect class="cls-27" x="50.25" y="42.01" width="1.74" height="1.74" rx="0.43" ry="0.43"/><path class="cls-28" d="M51.56,42a.43.43,0,0,1,.43.43v.88a.43.43,0,0,1-.43.43h-.88a.43.43,0,0,1-.43-.43"/><rect class="cls-26" x="53.77" y="42.3" width="1.74" height="1.74" rx="0.43" ry="0.43"/><rect class="cls-27" x="53.77" y="42.01" width="1.74" height="1.74" rx="0.43" ry="0.43"/><path class="cls-28" d="M55.08,42a.43.43,0,0,1,.43.43v.88a.43.43,0,0,1-.43.43H54.2a.43.43,0,0,1-.43-.43"/><rect class="cls-26" x="46.74" y="54.01" width="1.74" height="1.74" rx="0.43" ry="0.43"/><rect class="cls-27" x="46.74" y="53.72" width="1.74" height="1.74" rx="0.43" ry="0.43"/><path class="cls-28" d="M48,53.72a.43.43,0,0,1,.43.43V55a.43.43,0,0,1-.43.43h-.88a.43.43,0,0,1-.43-.43"/><rect class="cls-26" x="50.25" y="54.01" width="1.74" height="1.74" rx="0.43" ry="0.43"/><rect class="cls-27" x="50.25" y="53.72" width="1.74" height="1.74" rx="0.43" ry="0.43"/><path class="cls-28" d="M51.56,53.72a.43.43,0,0,1,.43.43V55a.43.43,0,0,1-.43.43h-.88a.43.43,0,0,1-.43-.43"/><rect class="cls-26" x="53.77" y="54.01" width="1.74" height="1.74" rx="0.43" ry="0.43"/><rect class="cls-29" x="53.77" y="53.72" width="1.74" height="1.74" rx="0.43" ry="0.43"/><path class="cls-30" d="M55.08,53.72a.43.43,0,0,1,.43.43V55a.43.43,0,0,1-.43.43H54.2a.43.43,0,0,1-.43-.43"/><circle class="cls-10" cx="22" cy="15.2" r="1.75"/><circle class="cls-10" cx="28.23" cy="21.44" r="1.75"/><line class="cls-31" x1="28.74" y1="14.7" x2="21.5" y2="21.94"/><path class="cls-32" d="M30.91,39.06V27.84a.66.66,0,0,0-.66-.66H20a.66.66,0,0,0-.66.66V39.06a.16.16,0,0,1-.16.16H17.62a.66.66,0,0,0-.47,1.13l7.5,7.5a.66.66,0,0,0,.93,0l7.5-7.5a.66.66,0,0,0-.47-1.13H31.07A.16.16,0,0,1,30.91,39.06Z"/><path class="cls-33" d="M29.77,27.33V38.56a.16.16,0,0,0,.16.16h1V27.84a.66.66,0,0,0-.66-.66h-.5A.66.66,0,0,1,29.77,27.33Z"/><path class="cls-34" d="M33.08,40.35a.66.66,0,0,0-.47-1.13H31.07a.16.16,0,0,1-.16-.16V27.84a.66.66,0,0,0-.66-.66H26.08l-1,.24V41.49a2.86,2.86,0,0,0,.84,2h0a2.86,2.86,0,0,0,4,0Z"/><path class="cls-35" d="M19.39,40.7h0A1.61,1.61,0,0,0,21,39.09V34.73a1.2,1.2,0,0,0-1.2-1.2h-.44a0,0,0,0,0,0,0V39a.2.2,0,0,1-.2.2H17.71a.7.7,0,0,0-.49,1.19l7.43,7.43A.65.65,0,0,0,25,48l-6.14-6.14A.7.7,0,0,1,19.39,40.7Z"/><path class="cls-35" d="M30.21,27.17H20a.7.7,0,0,0-.7.7v5a0,0,0,0,0,0,0h.44a1.2,1.2,0,0,0,1.2-1.2v-2.4a.7.7,0,0,1,.7-.7h9.17a0,0,0,0,0,0,0v-.74A.7.7,0,0,0,30.21,27.17Z"/><path class="cls-32" d="M25,28.65h5.84a0,0,0,0,0,0,0v-.74a.7.7,0,0,0-.7-.7H26.08l-1,.24Z"/><path class="cls-36" d="M17.88,41a.66.66,0,0,1,.47-1.13h1.54a.16.16,0,0,0,.16-.16V33.55l-.25,0h-.44a0,0,0,0,0,0,0v5.5a.16.16,0,0,1-.16.16H17.71a.7.7,0,0,0-.49,1.19l7.43,7.43.11.07Z"/><path class="cls-36" d="M20.05,28.53a.66.66,0,0,1,.66-.66h10.2a.7.7,0,0,0-.7-.7H20a.7.7,0,0,0-.7.7v5a0,0,0,0,0,0,0h.44l.25,0Z"/><path class="cls-28" d="M25,27.87h5.87a.7.7,0,0,0-.12-.39h0l-.08-.1h0l-.09-.08,0,0-.09,0-.11,0h-4.3l-1,.24Z"/><path class="cls-2" d="M30.91,39.06V27.84a.66.66,0,0,0-.66-.66H20a.66.66,0,0,0-.66.66V39.06a.16.16,0,0,1-.16.16H17.62a.66.66,0,0,0-.47,1.13l7.5,7.5a.66.66,0,0,0,.93,0l7.5-7.5a.66.66,0,0,0-.47-1.13H31.07A.16.16,0,0,1,30.91,39.06Z"/><line class="cls-2" x1="32.44" y1="39.23" x2="30.61" y2="39.23"/><line class="cls-2" x1="19.62" y1="39.23" x2="17.79" y2="39.23"/><path class="cls-37" d="M25.12,35.48a1.27,1.27,0,1,1,1.27-1.27"/><path class="cls-37" d="M25.12,35.48a1.27,1.27,0,1,1-1.27,1.27"/><line class="cls-37" x1="25.12" y1="32.93" x2="25.12" y2="31.91"/><line class="cls-37" x1="25.12" y1="39.06" x2="25.12" y2="38.03"/><path class="cls-1" d="M53.15,17.11v-3a.21.21,0,0,0-.21-.21H49.63a.21.21,0,0,0-.21.21v3a.05.05,0,0,1-.05.05h-.5a.21.21,0,0,0-.15.36l2.42,2.42a.21.21,0,0,0,.3,0l2.42-2.42a.21.21,0,0,0-.15-.36h-.5A.05.05,0,0,1,53.15,17.11Z"/><path class="cls-1" d="M52.37,25.07V23.34a.12.12,0,0,0-.12-.12H50.32a.12.12,0,0,0-.12.12v1.74a0,0,0,0,1,0,0h-.29a.12.12,0,0,0-.09.21l1.41,1.41a.12.12,0,0,0,.18,0l1.41-1.41a.12.12,0,0,0-.09-.21h-.29A0,0,0,0,1,52.37,25.07Z"/><path class="cls-38" d="M55.63,8.29h0A.58.58,0,0,0,55,7.71H52a1,1,0,0,0-1,1h0a1,1,0,0,0,1,1h1.54a.58.58,0,0,1,.58.58h0a.58.58,0,0,0,.58.58h3.08a1,1,0,0,0,1-1h0a1,1,0,0,0-1-1H56.2A.58.58,0,0,1,55.63,8.29Z"/><circle class="cls-38" cx="48.68" cy="10.92" r="1.07"/><circle class="cls-38" cx="46.95" cy="13.24" r="0.22"/><circle class="cls-38" cx="56.63" cy="15.03" r="1.12"/><circle class="cls-38" cx="57.21" cy="19.86" r="0.58"/><circle class="cls-38" cx="47.28" cy="22.68" r="0.33"/><circle class="cls-38" cx="10.33" cy="39.83" r="1.11"/><circle class="cls-38" cx="12.36" cy="43.55" r="0.35"/><circle class="cls-38" cx="7.09" cy="39.73" r="0.67"/></svg>